<?xml version="1.0" encoding="utf-8"?>
<!-- Generator: Adobe Illustrator 19.2.1, SVG Export Plug-In . SVG Version: 6.00 Build 0)  -->
<svg version="1.1" id="Layer_1" xmlns="http://www.w3.org/2000/svg" xmlns:xlink="http://www.w3.org/1999/xlink" x="0px" y="0px"
	 viewBox="0 0 1400 1400" style="enable-background:new 0 0 1400 1400;" xml:space="preserve">
<style type="text/css">
	.st0{fill:#262262;stroke:#000000;stroke-miterlimit:10;}
	.st1{stroke:#000000;stroke-miterlimit:10;}
	.st2{fill:none;stroke:#000000;stroke-miterlimit:10;}
</style>
<g>
</g>
<path class="st0" d="M178.5,1035.5"/>
<path class="st1" d="M1123.6,173.4c-239.4-3-479.7,86.8-662.4,269.4C275.6,628.4,185.9,873.5,192,1116.7
	c0,0,301.7-561.6,831.8-409.6l0,0c-105,199.3-334.2,406.9-829.6,454.1l0,0c2.5,34.3,7,68.5,13.3,102.4l0,0
	C446.9,1266.7,1296.2,983.2,1123.6,173.4z M1040.9,673.5L1040.9,673.5C453.6,483.8,220.2,993.2,220.2,993.2s64-660,862-728
	C1082.2,265.2,1139.4,477.2,1040.9,673.5z"/>
<path class="st2" d="M170.9,1239"/>
<path class="st2" d="M168.7,1194.5"/>
</svg>
